REM MD5 2c32c402e80384efb12907b6c041215a
FILE "Euro Demo 40 (France).bin" BINARY
  TRACK 01 MODE2/2352
    INDEX 01 00:00:00
  TRACK 02 AUDIO
    INDEX 00 36:33:53
    INDEX 01 36:35:53
  TRACK 03 AUDIO
    INDEX 00 39:22:67
    INDEX 01 39:24:67
REM LEADOUT 42:26:24
